<?xml version="1.0" encoding="UTF-8"?>
<svg xmlns="http://www.w3.org/2000/svg" xmlns:xlink="http://www.w3.org/1999/xlink" width="0" height="0">
<defs>
<symbol viewBox="0 0 871 1261" id="cockroach-hd">
<g stroke-width="2.00" fill="none" stroke-linecap="butt">
<path stroke="#010000" stroke-opacity="0.604" vector-effect="non-scaling-stroke" d="
  M 453.93 123.69
  Q 453.47 124.35 454.25 124.24
  A 1.03 0.18 -7.5 0 0 455.20 123.94
  Q 455.28 123.21 454.49 123.24
  A 0.95 0.37 -60.2 0 0 453.93 123.69"
></path>
<path stroke="#010000" stroke-opacity="0.604" vector-effect="non-scaling-stroke" d="
  M 628.81 446.24
  C 630.43 446.19 627.80 443.21 628.21 445.69
  A 0.65 0.59 84.4 0 0 628.81 446.24"
></path>
<path stroke="#010000" stroke-opacity="0.604" vector-effect="non-scaling-stroke" d="
  M 631.26 508.78
  Q 631.09 509.25 631.49 509.51
  A 0.79 0.35 -58.6 0 0 632.21 509.01
  Q 633.01 507.67 631.91 508.01
  A 1.31 0.70 -77.8 0 0 631.26 508.78"
></path>
<path stroke="#010000" stroke-opacity="0.604" vector-effect="non-scaling-stroke" d="
  M 417.26 809.50
  Q 417.60 810.64 418.73 811.04
  Q 419.67 811.36 419.26 810.49
  Q 418.80 809.52 417.94 808.80
  Q 416.76 807.81 417.26 809.50"
></path>
<path stroke="#010000" stroke-opacity="0.604" vector-effect="non-scaling-stroke" d="
  M 413.27 819.75
  Q 413.08 820.42 413.48 820.76
  A 0.82 0.40 -71.1 0 0 414.24 820.00
  Q 414.45 819.15 413.76 819.25
  A 0.71 0.57 -84.5 0 0 413.27 819.75"
></path>
<path stroke="#010000" stroke-opacity="0.604" vector-effect="non-scaling-stroke" d="
  M 413.07 822.92
  A 2.23 0.17 -17.3 0 0 414.97 822.48
  Q 416.42 822.05 415.55 821.23
  A 0.87 0.69 -48.1 0 0 414.44 821.42
  Q 413.82 822.12 413.32 821.43
  A 0.56 0.50 41.1 0 0 412.41 821.44
  Q 411.86 822.58 413.07 822.92"
></path>
<path stroke="#010000" stroke-opacity="0.604" vector-effect="non-scaling-stroke" d="
  M 402.98 840.01
  Q 403.04 841.51 403.80 840.57
  A 0.36 0.35 -52.0 0 0 403.74 840.06
  L 403.47 839.86
  Q 402.96 839.49 402.98 840.01"
></path>
<path stroke="#010000" stroke-opacity="0.604" vector-effect="non-scaling-stroke" d="
  M 274.80 1016.00
  C 273.90 1017.83 277.27 1015.84 275.56 1015.58
  A 0.77 0.70 -71.5 0 0 274.80 1016.00"
></path>
<path stroke="#010000" stroke-opacity="0.604" vector-effect="non-scaling-stroke" d="
  M 110.69 974.41
  Q 110.79 974.24 110.76 974.01
  A 0.57 0.43 -20.2 0 0 109.98 973.77
  Q 108.84 974.33 109.93 974.52
  A 0.81 0.30 12.1 0 0 110.69 974.41"
></path>
<path stroke="#010000" stroke-opacity="0.604" vector-effect="non-scaling-stroke" d="
  M 716.82 1007.99
  C 714.45 1009.41 718.74 1009.14 717.66 1008.03
  A 0.74 0.59 -36.0 0 0 716.82 1007.99"
></path>
<path stroke="#010000" stroke-opacity="0.604" vector-effect="non-scaling-stroke" d="
  M 714.25 1011.01
  Q 714.20 1011.45 714.56 1011.67
  A 0.88 0.50 -44.5 0 0 715.40 1011.45
  Q 716.32 1010.69 715.06 1010.58
  A 0.77 0.51 5.4 0 0 714.25 1011.01"
></path>
<path stroke="#010000" stroke-opacity="0.604" vector-effect="non-scaling-stroke" d="
  M 437.95 1000.27
  C 437.97 996.95 436.47 1000.81 437.54 1000.77
  A 0.51 0.42 -89.9 0 0 437.95 1000.27"
></path>
</g>
<path fill="#000000" d="
  M 255.86 285.07
  Q 261.19 278.24 266.51 271.40
  C 276.08 259.07 286.64 247.15 296.36 234.73
  C 306.51 221.78 318.77 210.24 329.74 198.10
  C 340.86 185.81 351.01 176.32 363.30 166.78
  C 369.35 162.09 374.99 156.43 381.12 151.53
  A 1.66 1.54 21.4 0 1 382.01 151.18
  C 390.28 150.51 397.27 149.19 406.07 151.45
  C 408.59 152.10 414.32 152.67 416.80 152.14
  Q 418.56 151.76 420.34 151.42
  A 0.77 0.54 -10.7 0 0 421.00 150.74
  Q 420.94 150.40 421.08 150.06
  A 0.99 0.85 40.7 0 0 420.94 149.14
  Q 417.05 143.78 416.71 142.53
  C 415.58 138.36 413.64 131.90 409.76 129.53
  C 405.94 127.19 399.80 123.67 395.24 124.01
  Q 393.70 124.12 389.35 122.28
  A 0.81 0.30 21.1 0 1 388.75 121.75
  Q 388.79 121.52 388.69 121.31
  Q 388.53 120.99 388.34 121.34
  Q 387.88 122.16 386.92 122.41
  A 1.57 0.83 36.2 0 1 386.03 122.28
  C 384.13 121.48 382.63 121.98 380.76 121.23
  Q 375.31 119.04 369.74 117.23
  A 0.90 0.73 89.6 0 1 369.21 116.58
  Q 369.12 116.19 368.89 115.95
  A 0.54 0.41 -45.8 0 0 368.19 116.06
  C 367.40 116.90 366.73 116.99 365.69 116.38
  Q 357.73 111.80 349.96 106.90
  A 1.41 1.11 -29.5 0 0 349.04 106.76
  C 348.04 106.93 341.61 102.87 340.18 102.15
  C 336.68 100.39 332.56 97.17 327.92 95.87
  Q 327.54 95.76 327.13 95.30
  Q 326.75 94.87 326.36 94.70
  Q 314.56 89.42 302.01 86.25
  Q 301.47 86.11 299.72 84.94
  A 1.82 1.72 61.7 0 0 298.81 84.64
  Q 287.53 84.27 276.34 85.86
  Q 275.76 85.95 273.83 87.38
  A 0.93 0.86 35.3 0 1 272.97 87.49
  Q 269.17 86.01 264.72 87.21
  Q 263.47 87.55 261.98 86.93
  A 1.46 0.90 -34.7 0 0 261.01 86.98
  Q 259.05 87.72 257.23 86.80
  A 1.84 0.84 38.0 0 0 256.26 86.57
  C 252.88 86.95 248.63 85.62 245.36 84.82
  C 240.41 83.62 235.66 85.22 230.94 83.30
  C 226.33 81.44 221.41 80.50 216.73 78.60
  Q 213.53 77.30 209.93 76.13
  C 206.74 75.10 204.05 73.55 200.82 72.81
  Q 188.07 69.89 175.07 68.62
  C 168.61 67.99 164.55 66.31 160.90 61.39
  C 157.96 57.44 157.17 50.57 155.74 45.49
  Q 155.04 42.97 156.40 40.73
  Q 158.94 36.58 163.04 32.78
  C 170.19 26.15 172.14 27.91 179.74 32.36
  A 1.59 1.58 2.6 0 1 180.38 33.06
  Q 181.50 35.56 182.52 39.49
  C 184.31 46.39 190.66 57.65 199.00 56.88
  C 207.59 56.10 213.30 58.62 221.11 61.21
  C 223.54 62.02 225.20 63.30 227.73 63.81
  Q 232.57 64.79 236.86 67.13
  Q 238.43 67.99 240.89 68.61
  C 245.52 69.77 249.23 71.25 255.18 71.93
  C 272.54 73.94 287.85 70.12 303.77 69.76
  C 308.18 69.66 312.00 71.46 316.18 72.79
  Q 318.55 73.55 322.48 73.91
  Q 328.98 74.51 333.79 77.51
  Q 336.82 79.41 339.41 80.22
  C 358.00 86.02 373.84 98.67 391.28 107.46
  Q 392.39 108.02 395.04 108.75
  C 403.52 111.10 412.80 111.87 420.67 114.48
  C 426.96 116.57 431.53 119.33 436.64 121.82
  C 438.74 122.84 439.46 124.10 439.49 126.28
  A 1.27 0.41 -87.5 0 0 439.77 127.28
  Q 442.36 128.96 445.33 127.88
  A 1.60 0.53 -67.5 0 0 446.05 127.05
  Q 448.29 122.90 451.83 119.83
  A 0.88 0.65 -45.3 0 1 452.78 119.68
  Q 454.37 120.85 455.68 119.47
  A 1.34 0.66 -56.3 0 1 456.50 119.00
  L 469.31 118.90
  A 1.48 0.46 -40.2 0 0 470.16 118.54
  C 474.33 115.77 478.13 116.92 481.12 112.04
  A 1.91 1.57 -83.6 0 1 481.81 111.37
  C 485.94 109.18 490.36 108.83 494.48 107.28
  C 497.04 106.31 499.73 105.68 502.18 104.81
  C 513.03 100.97 523.49 99.55 535.09 100.13
  C 546.07 100.67 554.80 99.27 564.76 99.81
  Q 565.61 99.86 569.63 101.53
  A 1.24 1.09 41.4 0 0 570.56 101.53
  Q 573.74 100.13 576.55 102.22
  A 1.80 1.13 -16.2 0 0 577.54 102.50
  Q 580.32 102.51 583.08 102.50
  C 586.00 102.48 588.00 104.19 591.27 102.87
  A 1.34 0.37 -26.2 0 1 592.27 102.68
  L 595.31 103.95
  A 1.28 0.21 24.5 0 0 596.24 104.20
  Q 599.98 103.50 604.43 103.86
  Q 621.74 105.26 638.44 110.04
  Q 645.84 112.16 653.51 112.74
  A 1.11 0.55 9.3 0 0 654.45 112.45
  Q 654.89 111.69 655.74 111.75
  A 1.80 1.16 -13.4 0 1 656.68 112.08
  Q 658.65 113.70 661.25 113.19
  A 1.25 0.36 37.8 0 1 662.12 113.54
  C 666.14 116.21 670.98 117.39 674.83 119.35
  C 679.53 121.75 684.85 123.84 689.41 127.11
  C 698.14 133.39 707.74 138.98 717.22 144.05
  Q 724.98 148.20 728.78 156.33
  C 729.20 157.25 729.13 158.63 727.70 158.32
  A 1.04 0.82 24.4 0 0 726.79 158.54
  L 724.95 160.44
  A 1.01 0.64 -56.5 0 1 724.22 160.77
  Q 721.34 160.31 720.70 163.12
  A 0.84 0.54 -0.8 0 1 720.01 163.58
  C 713.43 164.39 705.27 161.23 700.07 157.82
  C 692.50 152.86 684.69 148.32 677.08 143.41
  Q 673.08 140.84 667.62 138.27
  C 662.84 136.03 658.17 133.16 653.57 131.30
  C 633.96 123.38 613.95 120.13 592.43 117.37
  C 587.90 116.79 585.83 119.86 581.18 117.20
  A 1.12 0.88 43.9 0 0 580.30 117.11
  Q 577.11 118.44 574.13 116.64
  A 1.56 0.56 -21.1 0 0 572.97 116.67
  Q 568.52 117.92 565.51 114.80
  A 1.14 0.63 55.7 0 0 564.75 114.42
  Q 558.29 115.05 552.22 112.86
  A 1.15 0.75 -47.5 0 0 551.29 113.10
  Q 549.17 114.76 546.76 113.22
  A 1.54 1.35 -26.2 0 0 545.94 113.00
  C 541.11 113.07 534.83 112.64 530.32 114.29
  C 526.19 115.80 522.46 116.02 518.32 116.77
  Q 514.65 117.44 510.98 119.13
  Q 496.39 125.84 481.93 132.79
  Q 476.76 135.28 472.97 135.52
  Q 468.50 135.80 467.41 139.56
  A 0.98 0.66 -80.5 0 1 466.75 140.26
  L 454.76 141.30
  A 1.74 1.18 1.0 0 0 453.29 142.26
  Q 452.35 146.03 453.58 149.66
  A 0.98 0.90 -2.6 0 0 454.30 150.26
  C 468.83 153.13 485.34 158.50 498.70 166.48
  C 518.42 178.26 529.52 197.70 544.56 214.10
  C 566.32 237.84 583.41 260.91 596.87 289.79
  C 600.28 297.10 602.74 305.56 605.58 313.48
  C 608.04 320.32 607.58 327.17 606.03 334.03
  C 605.37 336.97 606.89 338.11 607.08 340.74
  Q 607.68 348.83 609.27 355.74
  C 610.09 359.28 612.47 361.63 613.37 364.96
  Q 617.11 378.77 623.45 391.51
  C 627.63 399.92 634.13 408.70 639.69 417.14
  C 644.54 424.50 648.64 432.35 652.87 440.13
  C 654.63 443.37 655.10 447.01 656.35 450.54
  A 0.90 0.82 58.5 0 1 656.18 451.44
  L 655.56 452.07
  A 0.99 0.56 61.6 0 0 655.54 453.00
  Q 656.08 454.29 655.14 455.41
  A 1.12 1.05 61.6 0 0 654.91 456.28
  Q 655.58 460.55 658.08 464.15
  A 1.54 1.02 -69.5 0 1 658.29 465.06
  Q 658.00 469.35 659.77 473.24
  A 1.73 1.21 46.3 0 1 659.92 474.23
  C 658.63 480.05 660.21 489.27 661.05 495.25
  Q 661.52 498.63 661.24 499.74
  Q 660.34 503.40 659.40 507.04
  C 657.58 514.08 662.18 519.81 658.26 526.96
  C 655.77 531.51 652.27 536.75 650.90 541.72
  C 648.30 551.17 646.22 560.72 643.59 570.17
  C 642.88 572.75 641.17 574.24 640.46 576.75
  Q 636.57 590.59 636.55 593.56
  Q 636.49 600.99 631.51 606.38
  A 1.21 1.18 -24.9 0 0 631.18 607.25
  C 631.53 618.79 622.90 626.27 621.27 637.26
  C 620.78 640.57 620.86 643.12 618.88 646.04
  C 609.41 659.99 606.25 676.76 599.85 692.15
  Q 587.88 720.95 571.59 747.58
  C 567.35 754.52 550.40 761.56 542.89 764.33
  C 534.57 767.39 527.89 770.89 522.54 776.54
  C 516.40 783.02 509.14 795.24 499.03 802.18
  Q 481.81 814.00 462.32 821.53
  Q 459.22 822.72 456.66 824.69
  C 444.41 834.09 432.58 841.55 417.50 845.74
  Q 416.15 846.12 411.21 849.26
  A 0.68 0.46 53.6 0 1 410.48 849.00
  Q 408.57 846.64 406.17 848.68
  A 0.72 0.69 42.7 0 1 405.29 848.70
  Q 402.77 846.80 401.64 843.93
  A 0.87 0.59 -11.7 0 0 400.78 843.57
  C 397.25 844.04 394.27 844.79 390.60 844.31
  C 387.45 843.91 384.80 844.43 381.72 843.38
  C 377.79 842.04 374.36 841.69 371.55 838.20
  Q 359.41 823.11 345.08 810.11
  C 340.10 805.60 335.50 803.13 329.46 800.91
  C 322.11 798.21 315.74 794.46 308.33 792.89
  C 304.80 792.14 301.19 789.64 298.66 788.63
  C 292.98 786.34 289.16 783.93 286.45 778.42
  C 284.47 774.39 281.55 771.93 279.96 768.42
  C 276.06 759.82 274.57 749.69 273.54 740.13
  C 273.27 737.59 272.12 735.99 271.71 733.62
  Q 269.59 721.40 268.49 717.74
  Q 267.00 712.79 267.87 708.74
  A 1.54 1.54 -50.5 0 0 267.78 707.79
  Q 266.34 704.52 266.09 700.94
  C 266.01 699.82 264.81 698.06 264.70 696.52
  Q 264.16 688.81 262.20 681.34
  C 261.74 679.57 261.85 676.67 260.52 674.44
  Q 260.32 674.10 260.27 673.50
  L 259.47 663.00
  A 1.46 1.42 23.4 0 0 259.12 662.15
  C 256.56 659.17 257.49 656.15 256.97 653.24
  Q 254.90 641.62 248.72 631.70
  C 244.10 624.29 242.87 614.95 240.04 606.74
  C 237.31 598.86 235.05 590.81 233.77 582.56
  C 233.04 577.82 230.60 574.32 228.88 568.72
  Q 228.23 566.60 226.26 561.40
  C 223.60 554.39 223.25 547.93 220.06 539.94
  Q 218.05 534.91 217.03 530.36
  C 213.72 515.66 211.47 501.82 205.30 486.99
  C 202.76 480.88 199.16 473.17 198.33 466.75
  C 196.98 456.28 197.27 452.15 199.48 441.28
  A 1.22 1.15 81.9 0 1 200.04 440.49
  Q 202.21 439.21 201.40 436.52
  A 1.73 0.69 -62.1 0 1 201.51 435.50
  C 206.03 422.27 206.95 406.99 208.46 392.55
  A 1.31 0.28 -42.4 0 1 209.02 391.76
  L 210.25 390.51
  A 0.89 0.31 45.1 0 0 209.84 389.65
  Q 206.48 386.32 209.52 382.45
  A 1.57 1.29 70.0 0 0 209.80 381.66
  C 209.96 379.17 209.60 377.33 210.61 374.90
  C 212.23 370.95 212.63 366.77 214.46 362.98
  C 217.10 357.52 218.63 350.73 220.21 346.36
  C 226.43 329.13 231.94 311.06 243.30 299.99
  Q 247.33 296.07 249.47 293.29
  Q 252.65 289.18 255.86 285.07
  Z
  M 453.93 123.69
  Q 453.47 124.35 454.25 124.24
  A 1.03 0.18 -7.5 0 0 455.20 123.94
  Q 455.28 123.21 454.49 123.24
  A 0.95 0.37 -60.2 0 0 453.93 123.69
  Z
  M 416.49 172.86
  C 422.00 174.05 413.95 169.40 415.71 172.33
  A 1.24 1.08 -6.9 0 0 416.49 172.86
  Z
  M 250.94 349.52
  Q 249.55 349.87 250.02 351.50
  C 251.06 355.16 249.07 356.25 248.20 358.76
  C 246.55 363.49 245.69 367.05 242.85 371.32
  A 1.42 1.37 59.6 0 0 242.63 372.23
  C 243.71 381.52 238.12 391.68 236.90 401.05
  C 236.13 407.00 237.69 412.58 235.79 417.28
  A 1.29 1.28 46.4 0 0 235.77 418.21
  C 236.97 421.46 237.00 423.58 235.73 427.08
  Q 234.21 431.29 237.79 435.25
  C 242.22 440.16 245.33 436.75 250.40 439.72
  Q 250.83 439.97 251.32 440.00
  Q 255.51 440.23 259.03 442.11
  C 262.10 443.75 266.79 444.94 270.16 445.43
  C 283.19 447.33 294.54 449.72 305.50 457.53
  Q 309.13 460.12 312.80 462.78
  Q 313.20 463.07 313.41 463.54
  C 315.01 467.11 318.12 469.27 320.12 471.45
  C 329.14 481.31 340.67 490.95 353.16 495.95
  Q 359.58 498.52 367.00 500.51
  Q 388.49 506.28 407.77 509.16
  C 409.77 509.46 410.53 508.22 412.78 509.14
  C 417.47 511.06 422.16 510.76 426.93 511.59
  C 428.40 511.84 429.74 511.18 431.30 512.09
  A 1.61 0.92 44.0 0 0 432.25 512.33
  Q 435.38 511.82 438.27 512.92
  Q 438.66 513.07 439.23 513.01
  C 443.04 512.55 445.22 514.47 448.54 514.49
  Q 483.93 514.64 515.22 498.67
  C 527.33 492.48 537.08 482.71 547.27 474.09
  C 558.33 464.73 568.14 455.08 582.17 450.15
  Q 588.42 447.95 597.14 447.53
  Q 611.84 446.81 626.52 448.46
  A 0.67 0.67 83.3 0 0 627.22 447.57
  C 626.95 446.82 625.57 443.72 626.98 443.45
  A 0.50 0.40 -11.8 0 0 627.39 442.95
  C 626.75 439.76 626.17 437.52 623.65 435.06
  C 620.12 431.62 617.27 425.72 614.71 421.44
  A 1.65 1.35 -63.4 0 1 614.50 420.51
  C 614.82 415.99 608.36 409.69 605.22 406.14
  C 601.62 402.06 599.13 396.90 596.35 392.24
  C 595.39 390.64 596.63 389.56 596.47 388.10
  Q 596.18 385.40 593.89 383.74
  A 0.92 0.45 32.3 0 1 593.44 383.01
  Q 594.01 380.83 592.21 379.80
  A 3.77 3.62 -84.3 0 1 590.53 377.66
  C 587.80 368.58 586.98 359.90 584.11 350.88
  C 583.60 349.29 583.93 347.81 583.57 346.18
  C 582.20 340.05 582.26 333.27 582.08 326.99
  C 581.95 322.54 580.21 318.43 580.48 313.56
  Q 580.51 313.06 580.28 312.61
  Q 578.47 309.03 578.04 305.08
  C 577.64 301.36 575.44 296.96 573.80 293.62
  Q 569.51 284.82 565.34 275.17
  Q 564.09 272.28 562.17 269.79
  C 555.98 261.79 550.94 252.81 545.08 244.35
  C 537.99 234.11 528.29 226.08 520.67 216.12
  C 516.73 210.97 512.27 206.82 508.43 202.45
  C 492.37 184.15 473.21 174.92 450.24 172.10
  C 444.98 171.46 441.25 173.48 436.28 173.52
  A 1.46 0.82 11.4 0 0 435.32 173.83
  L 431.26 178.01
  A 1.17 0.65 11.5 0 1 430.50 178.25
  L 422.75 178.25
  A 0.75 0.49 -0.3 0 0 422.00 178.75
  L 422.00 179.25
  A 0.54 0.54 10.8 0 1 421.25 179.76
  L 418.93 178.82
  A 1.41 0.87 -33.0 0 0 418.03 178.84
  C 416.44 179.37 415.67 178.19 414.58 177.79
  Q 404.24 173.95 395.01 176.83
  C 391.51 177.93 387.20 181.79 383.83 183.86
  Q 377.04 188.05 371.78 194.08
  C 369.99 196.13 367.74 197.88 365.89 199.97
  A 1.57 0.61 -55.7 0 1 365.04 200.55
  Q 361.92 200.98 360.27 203.79
  A 1.93 0.99 -10.8 0 1 359.44 204.44
  Q 355.44 206.23 353.29 210.03
  A 0.94 0.89 -74.4 0 1 352.50 210.50
  L 350.00 210.50
  A 0.85 0.71 -81.1 0 0 349.28 211.13
  Q 348.29 214.88 344.91 216.63
  C 343.74 217.24 342.35 216.85 341.12 217.70
  A 1.32 1.03 84.1 0 0 340.63 218.48
  C 339.15 225.37 331.57 227.94 327.28 233.05
  A 1.22 0.82 -62.6 0 1 326.49 233.48
  L 325.25 233.50
  A 0.67 0.42 -80.1 0 0 324.79 234.01
  L 324.09 236.82
  A 1.28 0.19 -74.0 0 0 323.96 237.81
  C 326.60 246.15 321.92 247.53 317.67 252.70
  C 314.01 257.16 311.06 263.35 306.90 267.07
  C 303.43 270.18 299.59 276.96 294.72 276.72
  A 1.40 0.61 10.5 0 0 293.72 276.95
  Q 289.65 280.94 284.35 282.87
  A 1.38 0.81 -79.2 0 0 283.72 283.59
  Q 282.23 287.17 282.14 291.08
  C 282.11 292.41 279.26 293.06 280.30 295.12
  A 0.92 0.83 65.5 0 1 279.91 296.37
  Q 275.92 297.90 272.50 300.49
  A 1.38 0.27 -78.8 0 0 272.10 301.46
  C 271.29 304.86 269.11 307.79 268.07 310.51
  C 265.47 317.33 263.75 325.45 257.78 330.43
  A 0.45 0.42 46.9 0 0 257.78 331.08
  C 261.07 334.12 255.32 335.12 253.69 337.55
  A 1.03 0.88 53.3 0 0 253.63 338.46
  Q 255.56 343.26 250.65 344.64
  Q 249.35 345.01 250.44 345.79
  Q 252.07 346.97 251.69 348.93
  A 1.06 0.63 -7.3 0 1 250.94 349.52
  Z
  M 628.81 446.24
  C 630.43 446.19 627.80 443.21 628.21 445.69
  A 0.65 0.59 84.4 0 0 628.81 446.24
  Z
  M 281.11 662.43
  L 281.24 664.75
  Q 281.28 665.56 281.37 665.76
  C 283.59 670.92 281.78 675.38 283.63 680.29
  A 0.99 0.71 61.4 0 1 283.51 681.27
  Q 282.53 682.18 283.52 682.97
  A 1.07 0.60 -71.0 0 1 283.69 683.91
  C 283.53 684.60 283.44 684.68 283.77 685.39
  Q 285.33 688.74 285.30 692.45
  A 2.22 1.03 -76.8 0 0 285.52 693.51
  Q 287.54 696.99 286.47 701.00
  A 1.15 0.05 71.1 0 0 286.78 702.04
  Q 288.07 705.91 287.70 710.01
  A 1.75 1.10 42.3 0 0 287.96 710.95
  C 290.17 714.61 290.27 717.43 290.95 722.81
  Q 291.35 725.99 291.72 731.24
  C 292.32 739.58 295.81 749.72 297.99 759.66
  Q 298.39 761.47 299.84 763.89
  C 303.04 769.24 303.31 774.15 310.23 776.51
  Q 326.94 782.21 342.81 789.93
  C 352.95 794.85 358.35 801.90 366.28 809.27
  C 369.94 812.68 371.55 817.09 376.00 820.02
  Q 383.20 824.75 386.39 827.19
  A 1.50 1.28 -23.6 0 0 387.27 827.46
  C 390.63 827.44 393.10 829.38 396.82 828.52
  C 399.48 827.90 401.79 825.41 404.77 824.27
  C 408.40 822.87 410.13 821.41 411.99 818.24
  A 1.09 1.07 8.4 0 1 412.72 817.71
  C 417.81 816.62 417.56 813.11 415.73 809.24
  Q 413.65 804.85 416.26 800.43
  A 1.90 1.57 -35.3 0 0 416.51 799.51
  C 416.22 789.90 412.45 781.34 413.95 771.62
  C 418.47 742.38 420.94 719.57 422.13 690.71
  Q 422.28 687.08 421.51 682.86
  Q 419.58 672.32 419.66 661.60
  C 419.71 654.53 418.67 646.92 420.01 639.23
  Q 420.14 638.50 419.81 636.24
  Q 419.18 631.94 420.69 627.96
  A 1.23 0.98 45.7 0 0 420.60 627.05
  C 419.27 624.44 420.42 622.30 420.48 620.16
  Q 420.74 611.87 420.65 603.59
  C 420.58 596.92 421.80 590.37 422.23 583.61
  C 422.74 575.52 425.07 567.89 425.57 559.86
  Q 425.88 554.96 426.20 550.06
  A 1.49 1.40 30.9 0 0 425.94 549.15
  C 423.05 545.04 423.58 535.51 428.89 532.83
  Q 430.77 531.88 428.97 530.77
  C 426.53 529.26 424.58 528.68 421.43 528.49
  C 416.87 528.22 410.90 527.17 405.47 527.22
  C 403.68 527.24 391.77 525.86 390.91 525.06
  A 1.82 1.12 60.2 0 0 390.08 524.61
  Q 373.24 521.84 356.84 517.15
  C 352.09 515.79 346.23 513.27 340.69 511.82
  C 334.89 510.29 327.13 505.75 322.29 502.24
  Q 318.86 499.75 315.31 497.41
  Q 303.31 489.54 295.50 477.53
  C 293.50 474.46 288.39 472.45 285.35 470.14
  Q 275.89 462.95 262.42 461.29
  Q 258.46 460.81 255.96 460.63
  C 253.25 460.43 251.18 458.97 248.44 458.45
  C 247.04 458.18 246.23 457.36 245.16 456.55
  A 1.67 1.66 -24.8 0 0 244.26 456.22
  C 241.07 455.98 235.82 454.39 233.00 455.42
  C 229.04 456.86 228.01 459.48 227.89 463.77
  Q 227.69 471.38 229.91 478.58
  C 232.77 487.89 234.06 497.54 237.35 506.64
  Q 239.79 513.38 240.14 515.52
  C 242.94 532.46 248.56 552.97 254.49 568.96
  Q 255.02 570.37 255.74 577.25
  C 256.04 580.17 257.64 582.83 257.54 586.20
  A 1.51 1.47 -62.1 0 0 257.81 587.12
  C 261.37 592.31 260.02 596.49 260.79 601.67
  C 262.65 614.20 269.78 625.54 273.87 637.92
  C 274.92 641.12 277.18 644.34 277.91 648.04
  C 278.89 653.05 279.98 656.75 279.77 661.12
  A 0.72 0.59 -72.4 0 0 279.98 661.65
  Q 280.10 661.76 280.23 661.85
  A 1.06 0.01 32.9 0 1 281.11 662.43
  Z
  M 591.12 632.29
  Q 591.26 631.25 592.34 630.86
  A 1.19 0.39 -70.7 0 0 592.87 630.17
  C 593.19 629.47 597.10 624.12 594.71 624.44
  A 1.00 0.60 -15.0 0 1 593.86 624.20
  C 593.35 623.50 597.38 613.81 597.90 612.68
  C 600.88 606.22 602.35 599.24 604.57 592.81
  Q 606.65 586.81 606.75 583.74
  Q 606.86 580.53 607.94 578.47
  C 609.44 575.63 609.74 574.14 610.50 571.52
  C 610.88 570.17 610.59 568.70 611.89 567.29
  A 1.75 1.47 -21.6 0 0 612.31 566.51
  L 613.01 563.26
  A 0.93 0.24 -8.3 0 1 613.81 562.92
  Q 616.67 562.42 614.03 560.65
  A 0.53 0.52 35.2 0 1 613.89 559.91
  L 615.81 557.32
  A 1.59 1.35 -29.4 0 0 616.11 556.51
  Q 616.37 551.93 618.29 545.97
  C 620.83 538.06 622.77 530.75 625.56 526.40
  A 1.37 0.74 -45.9 0 0 625.82 525.48
  Q 625.11 522.45 627.75 521.28
  Q 628.70 520.86 628.08 520.43
  Q 627.68 520.16 627.50 519.75
  A 0.99 0.62 -42.7 0 1 627.74 518.88
  C 629.35 517.00 628.26 515.29 628.52 513.60
  Q 629.02 510.31 630.39 507.21
  A 1.75 0.70 -56.4 0 0 630.59 506.25
  Q 630.04 502.87 632.17 500.48
  A 1.48 1.03 -33.7 0 0 632.56 499.49
  L 631.92 493.25
  A 0.57 0.53 85.4 0 1 632.41 492.63
  Q 634.69 492.50 633.47 490.80
  A 1.05 0.08 54.2 0 1 632.98 490.00
  Q 632.98 488.84 633.71 487.95
  A 1.35 1.11 -45.6 0 0 633.84 486.42
  C 631.73 483.71 635.37 480.00 631.76 478.59
  A 0.85 0.50 15.5 0 1 631.18 477.99
  L 631.51 469.00
  A 1.38 1.02 -72.3 0 0 631.19 468.06
  L 630.07 466.94
  A 0.99 0.59 54.2 0 0 629.33 466.62
  L 624.48 467.67
  A 1.46 1.25 -73.7 0 0 623.70 468.18
  C 620.90 471.89 618.17 470.10 614.66 470.49
  Q 609.55 471.06 604.50 470.10
  A 1.77 1.52 -47.3 0 0 603.55 470.21
  C 601.35 471.14 595.80 468.95 592.91 468.89
  C 589.49 468.83 585.24 472.41 582.44 474.28
  A 1.79 1.67 26.0 0 1 581.52 474.56
  C 579.22 474.62 578.13 474.81 576.75 476.83
  Q 563.40 496.30 543.34 508.74
  Q 541.64 509.79 540.05 511.26
  C 536.80 514.26 533.49 514.79 529.60 516.08
  Q 526.33 517.17 522.74 519.01
  C 511.02 525.03 498.65 531.14 485.08 530.18
  Q 480.14 529.82 475.20 529.68
  A 1.58 1.32 -57.2 0 0 474.30 529.96
  C 471.48 531.89 453.05 531.64 447.24 530.79
  A 1.11 1.00 -61.6 0 0 446.35 531.11
  Q 444.43 533.04 445.19 535.79
  Q 445.52 536.98 446.66 538.29
  C 449.42 541.48 448.50 544.28 450.28 547.57
  A 1.51 0.93 -64.9 0 1 450.38 548.42
  L 449.77 552.01
  A 1.35 0.34 -83.9 0 1 449.43 552.93
  Q 447.20 554.87 449.02 557.26
  A 1.56 1.16 -67.6 0 1 449.27 558.25
  L 446.36 591.24
  A 0.83 0.44 -9.7 0 1 445.73 591.73
  Q 445.56 591.78 445.44 591.93
  A 1.27 0.76 -38.2 0 0 445.13 592.74
  L 445.79 599.99
  A 1.31 0.38 80.0 0 1 445.69 600.94
  Q 444.36 602.76 445.61 604.67
  Q 445.71 604.83 445.77 605.75
  L 446.01 609.75
  A 1.31 1.02 71.2 0 1 445.69 610.68
  L 445.18 611.18
  A 0.79 0.58 53.4 0 0 445.19 612.05
  Q 446.97 614.89 445.26 617.78
  A 0.87 0.65 -52.5 0 0 445.25 618.67
  L 445.60 619.10
  A 1.25 0.47 45.8 0 1 445.99 619.99
  Q 445.17 623.67 445.97 627.23
  A 1.09 0.81 -23.9 0 1 445.42 628.21
  Q 443.58 629.30 445.32 631.00
  A 1.06 0.35 -82.6 0 1 445.47 631.80
  C 444.85 644.59 443.75 652.15 444.18 660.57
  C 444.31 662.95 443.56 665.88 445.12 668.80
  A 1.69 0.89 49.2 0 1 445.34 669.76
  Q 444.76 673.25 445.21 676.75
  A 0.93 0.00 -62.6 0 1 444.79 677.57
  Q 444.12 678.87 445.06 679.96
  A 1.19 0.61 -74.2 0 1 445.23 680.79
  C 444.95 683.57 446.55 685.20 445.84 688.01
  A 1.47 0.91 -63.2 0 0 445.93 689.04
  Q 448.47 693.01 448.26 697.75
  A 1.77 0.93 -74.7 0 0 448.49 698.78
  Q 450.36 701.48 448.46 704.22
  A 1.47 1.01 -41.4 0 0 448.20 705.26
  L 448.76 707.50
  A 1.35 1.06 -40.7 0 1 448.57 708.46
  C 447.32 710.48 445.70 711.86 445.15 714.20
  Q 443.52 721.14 442.90 728.25
  C 442.61 731.65 441.38 734.47 440.75 737.81
  Q 439.89 742.36 439.16 744.96
  Q 435.31 758.79 435.83 773.21
  C 435.92 775.65 435.00 776.97 433.04 778.14
  A 0.96 0.40 -25.8 0 0 432.50 778.75
  L 432.51 784.25
  A 1.33 0.31 -87.4 0 0 432.71 785.31
  Q 434.10 786.58 433.82 788.56
  A 1.18 0.22 55.6 0 0 434.20 789.42
  C 435.72 791.81 437.84 794.46 436.52 797.45
  A 1.22 1.08 -57.5 0 0 436.73 798.77
  L 444.56 806.19
  A 0.84 0.83 -43.7 0 0 445.69 806.21
  C 451.59 800.95 458.06 797.67 465.08 793.95
  C 470.25 791.22 473.79 787.60 477.96 783.72
  C 480.56 781.31 483.85 781.31 486.17 778.49
  C 490.89 772.75 495.36 766.15 500.17 761.35
  C 507.08 754.46 518.52 744.70 528.24 742.59
  C 554.95 736.79 562.22 710.75 569.90 688.43
  C 570.59 686.42 572.06 683.59 572.63 680.98
  Q 573.13 678.66 574.15 676.80
  Q 576.97 671.65 577.59 665.71
  A 1.79 1.70 -24.4 0 1 577.95 664.82
  Q 580.53 661.34 581.15 657.15
  Q 581.61 654.06 582.32 652.36
  C 584.62 646.86 585.20 642.42 587.69 637.81
  A 0.72 0.50 -58.9 0 1 588.54 637.43
  Q 590.48 638.89 590.25 636.50
  A 1.49 1.10 64.5 0 1 590.41 635.66
  Q 590.83 634.97 591.58 634.58
  A 1.20 0.68 -20.7 0 0 592.27 633.75
  Q 592.25 633.23 591.82 632.92
  A 1.00 0.12 34.9 0 1 591.12 632.29
  Z
  M 631.26 508.78
  Q 631.09 509.25 631.49 509.51
  A 0.79 0.35 -58.6 0 0 632.21 509.01
  Q 633.01 507.67 631.91 508.01
  A 1.31 0.70 -77.8 0 0 631.26 508.78
  Z
  M 426.77 750.94
  C 425.68 751.70 425.82 755.65 427.53 753.19
  A 1.07 0.57 -49.4 0 0 427.74 752.25
  Q 427.18 751.26 427.83 750.32
  Q 428.07 749.98 427.63 750.07
  Q 427.46 750.11 427.35 750.24
  Q 426.77 750.93 426.77 750.94
  Z
  M 417.26 809.50
  Q 417.60 810.64 418.73 811.04
  Q 419.67 811.36 419.26 810.49
  Q 418.80 809.52 417.94 808.80
  Q 416.76 807.81 417.26 809.50
  Z
  M 419.50 818.58
  Q 421.89 817.12 419.69 814.50
  Q 418.27 812.82 418.49 815.03
  L 418.79 817.99
  A 0.56 0.34 -1.0 0 1 418.21 818.36
  C 414.85 818.33 416.72 823.82 418.86 819.28
  A 1.70 1.61 -4.1 0 1 419.50 818.58
  Z
  M 413.27 819.75
  Q 413.08 820.42 413.48 820.76
  A 0.82 0.40 -71.1 0 0 414.24 820.00
  Q 414.45 819.15 413.76 819.25
  A 0.71 0.57 -84.5 0 0 413.27 819.75
  Z
  M 413.07 822.92
  A 2.23 0.17 -17.3 0 0 414.97 822.48
  Q 416.42 822.05 415.55 821.23
  A 0.87 0.69 -48.1 0 0 414.44 821.42
  Q 413.82 822.12 413.32 821.43
  A 0.56 0.50 41.1 0 0 412.41 821.44
  Q 411.86 822.58 413.07 822.92
  Z
  M 402.98 840.01
  Q 403.04 841.51 403.80 840.57
  A 0.36 0.35 -52.0 0 0 403.74 840.06
  L 403.47 839.86
  Q 402.96 839.49 402.98 840.01
  Z"
></path>
<path fill="#030200" fill-opacity="0.208" d="
  M 454.49 123.24
  Q 455.28 123.21 455.20 123.94
  A 1.03 0.18 -7.5 0 1 454.25 124.24
  Q 453.47 124.35 453.93 123.69
  A 0.95 0.37 -60.2 0 1 454.49 123.24
  Z"
></path>
<path fill="#030200" fill-opacity="0.208" d="
  M 628.21 445.69
  C 627.80 443.21 630.43 446.19 628.81 446.24
  A 0.65 0.59 84.4 0 1 628.21 445.69
  Z"
></path>
<path fill="#030200" fill-opacity="0.208" d="
  M 631.91 508.01
  Q 633.01 507.67 632.21 509.01
  A 0.79 0.35 -58.6 0 1 631.49 509.51
  Q 631.09 509.25 631.26 508.78
  A 1.31 0.70 -77.8 0 1 631.91 508.01
  Z"
></path>
<path fill="#030200" fill-opacity="0.208" d="
  M 417.26 809.50
  Q 416.76 807.81 417.94 808.80
  Q 418.80 809.52 419.26 810.49
  Q 419.67 811.36 418.73 811.04
  Q 417.60 810.64 417.26 809.50
  Z"
></path>
<path fill="#030200" fill-opacity="0.208" d="
  M 413.76 819.25
  Q 414.45 819.15 414.24 820.00
  A 0.82 0.40 -71.1 0 1 413.48 820.76
  Q 413.08 820.42 413.27 819.75
  A 0.71 0.57 -84.5 0 1 413.76 819.25
  Z"
></path>
<path fill="#030200" fill-opacity="0.208" d="
  M 413.07 822.92
  Q 411.86 822.58 412.41 821.44
  A 0.56 0.50 41.1 0 1 413.32 821.43
  Q 413.82 822.12 414.44 821.42
  A 0.87 0.69 -48.1 0 1 415.55 821.23
  Q 416.42 822.05 414.97 822.48
  A 2.23 0.17 -17.3 0 1 413.07 822.92
  Z"
></path>
<path fill="#030200" fill-opacity="0.208" d="
  M 403.47 839.86
  L 403.74 840.06
  A 0.36 0.35 -52.0 0 1 403.80 840.57
  Q 403.04 841.51 402.98 840.01
  Q 402.96 839.49 403.47 839.86
  Z"
></path>
<path fill="#000000" d="
  M 131.14 953.99
  C 131.80 955.40 133.34 957.41 135.00 957.12
  A 0.53 0.49 79.3 0 0 135.39 956.51
  C 134.97 954.10 133.78 952.00 133.48 949.77
  Q 132.78 944.69 132.53 939.58
  C 132.37 936.32 134.04 931.14 133.24 928.25
  Q 131.87 923.25 131.77 918.08
  A 1.33 1.30 65.4 0 1 132.09 917.19
  Q 136.26 912.25 140.18 907.20
  C 145.42 900.47 151.25 898.26 159.27 896.66
  C 171.64 894.19 180.64 897.14 189.42 905.88
  A 1.11 0.56 51.9 0 0 190.25 906.27
  Q 190.96 906.11 191.57 906.42
  A 0.70 0.67 20.6 0 1 191.93 907.18
  Q 191.58 908.75 192.72 909.24
  C 202.38 913.38 202.95 918.94 203.21 928.19
  A 1.34 0.86 -31.5 0 1 202.79 929.06
  Q 200.97 930.90 203.33 931.91
  A 1.07 0.79 -43.2 0 0 204.19 931.81
  C 206.41 930.53 208.36 929.56 210.44 927.78
  Q 217.01 922.15 225.69 923.00
  C 229.13 923.33 233.64 925.43 238.50 924.80
  C 243.27 924.18 246.58 924.88 248.12 929.72
  A 0.78 0.61 70.4 0 1 247.83 930.60
  L 242.16 933.13
  A 1.45 0.50 -29.9 0 1 241.18 933.32
  Q 238.55 932.42 235.75 932.81
  A 1.48 0.71 44.4 0 1 234.81 932.49
  Q 233.14 931.38 231.50 932.17
  A 1.66 0.87 26.1 0 1 230.50 932.20
  L 227.93 931.60
  A 1.74 0.86 26.2 0 0 227.01 931.60
  Q 224.52 932.45 222.08 933.42
  C 207.06 939.41 216.37 951.62 214.80 962.10
  Q 213.74 969.11 214.28 971.01
  Q 215.27 974.52 215.44 978.15
  C 215.56 980.91 216.14 986.82 217.80 988.92
  Q 221.66 993.80 227.71 995.77
  Q 229.58 996.38 231.39 995.63
  Q 238.06 992.89 245.05 990.60
  C 248.43 989.50 251.63 990.52 255.06 990.85
  A 1.50 1.28 -16.3 0 1 255.93 991.24
  C 262.55 997.64 247.21 999.15 244.13 1000.12
  C 237.37 1002.24 226.99 1005.33 220.57 1000.66
  Q 218.73 999.33 216.89 998.50
  C 209.62 995.24 206.25 986.13 205.22 978.74
  Q 203.24 964.41 201.98 950.01
  Q 201.76 947.55 200.68 949.67
  C 199.24 952.49 197.23 954.52 195.92 957.30
  A 1.23 1.04 50.4 0 0 195.91 958.21
  C 196.89 960.62 195.30 961.96 194.91 963.75
  Q 194.46 965.81 194.70 967.91
  Q 194.89 969.65 193.21 972.19
  Q 188.42 979.43 182.50 985.76
  C 175.72 993.00 161.67 989.79 152.25 988.53
  C 149.29 988.13 147.27 986.72 144.82 986.01
  C 136.38 983.58 132.57 976.20 127.77 969.45
  C 125.81 966.69 125.20 963.97 123.91 961.02
  Q 122.71 958.31 123.74 955.52
  C 125.26 951.43 127.68 953.96 130.45 953.60
  A 0.68 0.66 73.7 0 1 131.14 953.99
  Z
  M 149.06 973.35
  L 145.26 977.78
  A 0.37 0.34 31.3 0 0 145.42 978.33
  Q 156.02 982.74 167.49 982.65
  C 173.79 982.61 180.01 973.00 182.47 968.25
  Q 184.71 963.94 186.79 954.38
  C 188.95 944.47 191.34 934.62 192.27 924.48
  Q 192.47 922.32 191.29 920.50
  Q 185.97 912.35 178.07 906.37
  C 172.02 901.80 164.73 903.33 158.51 906.38
  C 155.32 907.95 152.82 911.26 149.86 913.66
  Q 149.47 913.97 149.29 914.43
  C 147.99 917.79 144.05 920.64 141.57 923.34
  Q 140.22 924.82 140.30 926.49
  L 140.94 939.50
  A 1.78 1.41 65.7 0 1 140.69 940.50
  Q 139.05 942.90 140.44 945.57
  A 1.30 0.97 47.4 0 1 140.54 946.51
  Q 139.49 949.31 141.37 951.33
  A 1.44 0.72 -78.4 0 1 141.63 952.29
  C 141.54 955.78 143.22 959.33 144.04 962.25
  Q 145.13 966.10 147.71 969.32
  Q 150.03 972.21 149.06 973.35
  Z
  M 136.68 962.24
  Q 136.62 963.53 137.78 964.34
  A 1.69 1.13 89.6 0 1 138.35 965.18
  Q 138.81 966.59 139.80 967.70
  A 0.68 0.51 55.7 0 0 140.44 967.92
  C 141.07 967.68 137.63 960.79 137.28 959.84
  A 1.04 0.64 79.3 0 0 136.71 959.22
  C 135.79 959.01 136.42 961.00 136.54 961.31
  Q 136.71 961.73 136.68 962.24
  Z
  M 247.01 995.00
  Q 247.27 994.93 247.44 994.68
  A 0.59 0.53 40.1 0 0 247.34 993.96
  Q 245.82 992.51 246.55 994.46
  A 0.69 0.26 70.7 0 0 247.01 995.00
  Z"
></path>
<path fill="#000000" d="
  M 286.83 925.58
  Q 286.79 927.42 288.44 926.42
  L 296.51 921.51
  A 1.18 1.00 36.3 0 1 297.48 921.44
  Q 300.54 922.56 299.75 919.50
  A 1.07 1.01 -32.2 0 1 299.99 918.56
  Q 304.35 913.67 308.78 908.89
  C 312.25 905.14 316.78 902.11 320.66 898.37
  A 1.23 0.76 15.3 0 1 321.51 898.12
  L 327.27 898.37
  Q 328.25 898.41 328.31 898.45
  Q 330.13 899.49 332.26 899.71
  A 1.18 1.14 -9.8 0 1 333.17 900.33
  Q 333.69 901.35 334.82 901.65
  A 1.22 0.67 83.3 0 1 335.43 902.51
  Q 336.23 905.80 333.10 905.98
  A 1.55 0.33 0.7 0 0 332.04 906.19
  C 330.05 907.55 328.26 908.15 326.68 910.03
  Q 316.78 921.77 308.04 929.04
  C 303.82 932.56 298.22 932.89 297.69 941.25
  Q 297.36 946.39 295.72 951.33
  A 1.95 1.03 -85.8 0 1 295.18 952.19
  L 294.50 952.73
  A 1.01 0.37 58.6 0 0 294.70 953.75
  Q 296.07 956.04 293.65 957.47
  A 0.56 0.37 -34.4 0 0 293.37 958.15
  Q 294.75 959.63 295.35 961.61
  A 1.15 0.40 8.7 0 0 296.24 962.08
  C 300.06 962.89 301.21 966.77 302.88 969.68
  C 305.67 974.55 309.68 977.74 311.88 983.50
  A 1.34 0.40 73.3 0 0 312.44 984.35
  Q 313.80 984.97 313.59 986.55
  A 0.98 0.36 27.8 0 0 314.19 987.22
  C 318.13 989.58 320.48 993.16 323.86 995.68
  C 330.03 1000.29 335.06 1004.75 339.98 1011.13
  Q 344.11 1016.48 348.20 1021.86
  C 350.36 1024.71 350.58 1028.55 346.86 1029.97
  C 342.10 1031.79 338.86 1029.79 336.12 1025.63
  Q 329.17 1015.08 327.17 1012.83
  Q 322.47 1007.53 309.29 997.21
  Q 306.90 995.34 304.19 989.65
  C 301.47 983.92 298.33 976.38 293.07 972.64
  A 0.58 0.58 -66.2 0 0 292.17 972.99
  Q 289.75 984.60 289.55 996.48
  C 289.54 997.06 289.01 998.13 289.01 998.50
  Q 289.07 1009.90 288.40 1021.28
  C 288.21 1024.44 287.16 1027.69 286.91 1031.14
  C 286.62 1035.06 288.44 1038.97 283.56 1041.16
  Q 278.93 1043.24 275.06 1038.97
  Q 272.96 1036.65 272.63 1033.54
  C 271.61 1023.99 272.15 1013.26 274.61 1003.54
  C 280.70 979.49 279.14 955.83 276.60 930.43
  Q 275.40 918.51 278.63 904.81
  A 0.85 0.82 -1.4 0 1 279.24 904.19
  Q 281.31 903.66 282.95 905.05
  A 1.35 0.66 -80.8 0 1 283.24 906.01
  Q 283.23 907.69 284.54 908.70
  A 0.98 0.67 -72.8 0 1 284.79 909.51
  L 284.49 911.75
  A 1.10 1.03 -67.3 0 0 284.84 912.69
  Q 285.85 913.56 285.47 914.99
  A 1.21 0.62 43.6 0 0 285.78 915.88
  C 287.50 918.00 286.89 923.16 286.83 925.58
  Z
  M 274.80 1016.00
  C 273.90 1017.83 277.27 1015.84 275.56 1015.58
  A 0.77 0.70 -71.5 0 0 274.80 1016.00
  Z
  M 275.3833 1020.7045
  A 1.01 0.76 67.7 0 0 275.7032 1019.4816
  A 1.01 0.76 67.7 0 0 274.6167 1018.8355
  A 1.01 0.76 67.7 0 0 274.2968 1020.0584
  A 1.01 0.76 67.7 0 0 275.3833 1020.7045
  Z"
></path>
<path fill="#000000" d="
  M 390.02 1069.23
  Q 389.88 1068.38 388.93 1068.36
  A 0.53 0.45 -84.4 0 1 388.52 1067.76
  L 389.00 1064.51
  A 0.66 0.54 0.5 0 0 388.27 1063.91
  L 382.98 1064.35
  A 0.49 0.43 -87.6 0 1 382.52 1063.79
  Q 383.09 1059.64 384.62 1055.84
  C 385.51 1053.64 385.35 1051.50 386.14 1049.25
  A 1.42 1.40 -46.4 0 0 386.12 1048.30
  C 385.86 1047.66 385.59 1046.99 385.57 1046.29
  Q 385.22 1030.59 386.97 1015.00
  Q 387.03 1014.47 386.89 1013.96
  Q 386.73 1013.40 386.80 1012.99
  Q 388.65 1002.06 389.32 991.00
  Q 389.48 988.53 390.09 985.05
  C 391.03 979.76 390.46 974.30 390.48 969.03
  C 390.50 960.54 388.65 949.72 387.66 943.81
  C 386.26 935.46 386.58 929.39 392.46 922.61
  Q 398.54 915.59 404.26 908.26
  Q 413.24 896.75 427.26 901.78
  Q 428.02 902.06 428.63 902.64
  Q 429.03 903.03 429.44 903.18
  Q 434.84 905.23 436.91 910.36
  C 437.86 912.71 437.22 915.51 438.04 918.25
  A 1.04 0.55 67.8 0 1 437.95 919.20
  L 435.57 921.32
  A 0.84 0.53 -46.0 0 1 434.74 921.52
  Q 432.75 920.33 430.43 920.41
  A 0.97 0.56 71.0 0 1 429.75 919.82
  C 428.04 916.14 429.73 911.41 425.99 909.16
  C 418.61 904.73 405.91 924.71 402.18 929.44
  C 397.62 935.22 399.57 948.42 400.62 955.27
  C 400.80 956.47 401.79 957.30 401.77 958.51
  Q 401.69 963.18 401.91 967.85
  C 402.26 975.48 401.76 981.76 400.81 988.87
  C 399.31 1000.06 398.55 1012.39 397.47 1022.00
  C 396.68 1029.01 397.15 1037.57 396.99 1042.56
  Q 396.82 1047.96 396.63 1053.35
  C 396.44 1058.50 394.40 1063.39 393.85 1068.66
  Q 393.59 1071.11 391.32 1071.14
  L 385.26 1071.23
  A 0.53 0.49 6.6 0 1 384.73 1070.61
  C 385.27 1068.58 387.98 1069.62 389.45 1069.67
  A 0.53 0.39 -1.3 0 0 390.02 1069.23
  Z"
></path>
<path fill="#000000" d="
  M 55.87 912.68
  C 59.05 910.94 60.08 907.26 63.10 905.57
  C 70.18 901.61 75.90 901.75 83.13 901.25
  Q 86.75 900.99 90.83 901.67
  C 95.65 902.46 99.96 902.74 105.03 904.60
  C 109.18 906.12 113.21 909.07 117.60 910.97
  A 1.46 1.23 3.7 0 1 118.34 911.68
  L 119.48 914.50
  A 1.31 0.73 -52.0 0 1 119.33 915.45
  C 115.63 922.37 111.22 916.42 106.67 915.22
  Q 106.18 915.09 105.81 914.77
  C 102.39 911.78 93.32 909.76 90.49 910.44
  C 85.25 911.70 81.25 910.32 77.17 911.24
  C 66.86 913.56 58.77 927.58 58.17 937.50
  C 57.42 949.97 59.37 963.15 66.32 973.83
  A 1.73 1.71 85.9 0 0 67.04 974.46
  C 77.05 979.23 88.09 976.35 97.12 970.79
  C 104.29 966.38 105.22 960.99 115.92 964.17
  A 2.17 1.17 1.0 0 1 116.83 964.68
  L 119.09 967.17
  A 1.36 1.31 43.5 0 1 119.17 968.90
  C 116.81 971.78 113.03 973.86 110.90 975.45
  C 99.24 984.18 84.39 988.55 69.98 984.85
  A 1.27 0.96 -48.6 0 0 69.11 985.03
  Q 68.46 985.44 67.93 985.09
  Q 62.70 981.60 57.93 980.21
  A 1.71 1.58 -10.4 0 1 57.11 979.69
  C 55.47 977.73 53.97 976.36 53.08 973.89
  Q 52.03 970.96 51.13 967.98
  C 49.72 963.26 47.45 958.83 46.74 953.54
  Q 46.57 952.33 45.63 949.08
  C 44.55 945.33 46.07 941.50 45.52 936.51
  A 2.05 0.99 -50.9 0 1 45.76 935.50
  L 46.00 935.00
  Q 46.32 934.35 46.33 933.99
  Q 46.67 922.88 53.61 914.41
  Q 54.34 913.52 55.87 912.68
  Z
  M 114.87 917.41
  A 1.26 1.16 -81.4 0 0 116.30 916.26
  Q 116.46 914.29 114.93 913.06
  Q 114.41 912.65 114.40 913.19
  Q 114.38 914.20 115.06 914.94
  A 0.13 0.11 -50.7 0 1 115.06 915.08
  Q 113.66 917.13 114.87 917.41
  Z
  M 106.29 967.15
  Q 107.00 967.67 107.72 966.94
  A 1.40 0.93 -59.5 0 1 108.54 966.54
  Q 110.28 966.51 113.25 967.16
  C 114.28 967.39 113.90 966.57 113.47 966.33
  Q 109.96 964.34 105.82 965.39
  C 105.17 965.56 103.77 966.31 105.45 966.72
  Q 105.83 966.81 106.29 967.15
  Z
  M 116.17 969.48
  C 115.22 966.15 114.16 970.78 112.43 971.54
  A 1.54 0.99 -8.1 0 0 111.72 972.15
  C 111.06 973.49 112.70 972.91 113.19 972.54
  Q 114.56 971.51 115.92 970.30
  A 0.81 0.78 -29.1 0 0 116.17 969.48
  Z
  M 110.69 974.41
  Q 110.79 974.24 110.76 974.01
  A 0.57 0.43 -20.2 0 0 109.98 973.77
  Q 108.84 974.33 109.93 974.52
  A 0.81 0.30 12.1 0 0 110.69 974.41
  Z"
></path>
<path fill="#000000" d="
  M 591.76 998.53
  Q 589.57 999.31 589.24 1001.95
  C 588.62 1006.74 589.31 1008.78 594.35 1009.81
  Q 604.64 1011.91 614.45 1008.08
  C 617.42 1006.93 618.77 1004.34 620.85 1001.92
  Q 622.10 1000.47 624.01 1000.56
  C 633.82 1001.02 629.59 1011.83 623.52 1013.81
  C 616.85 1015.97 608.89 1016.83 602.59 1017.32
  Q 590.57 1018.26 579.78 1012.27
  Q 577.45 1010.97 577.33 1008.59
  L 576.95 1001.26
  A 0.89 0.66 -83.4 0 0 576.53 1000.54
  Q 575.61 1000.17 574.63 1000.55
  Q 574.09 1000.76 573.68 1000.74
  C 562.11 1000.31 555.90 1000.75 548.97 990.77
  Q 544.08 983.74 538.43 977.33
  Q 534.51 972.87 533.89 966.99
  C 533.01 958.52 530.90 948.91 534.63 940.63
  C 542.97 922.12 557.58 912.57 577.39 909.19
  C 581.90 908.42 585.52 909.28 589.82 910.39
  Q 593.07 911.23 596.00 913.36
  C 600.05 916.29 605.31 919.58 608.23 924.02
  Q 608.86 924.97 611.48 926.85
  A 1.59 0.96 22.1 0 1 612.10 927.68
  L 612.81 931.19
  A 1.34 0.58 69.5 0 1 612.77 932.00
  Q 610.40 936.59 610.17 941.75
  A 1.67 1.42 30.8 0 0 610.53 942.80
  Q 612.63 945.51 609.87 947.90
  A 1.71 1.46 79.4 0 0 609.37 948.77
  Q 607.20 958.55 606.67 968.52
  C 606.25 976.49 607.50 982.21 603.74 989.99
  A 1.55 0.81 -15.2 0 1 603.10 990.58
  Q 599.69 992.38 598.09 995.83
  A 1.47 1.43 -86.5 0 1 597.27 996.58
  L 591.76 998.53
  Z
  M 571.57 992.63
  C 574.55 991.89 577.35 992.37 580.30 991.88
  A 1.50 0.82 1.9 0 0 581.19 991.43
  L 583.09 988.83
  A 2.19 1.52 -64.1 0 1 584.74 987.90
  Q 587.80 988.16 590.70 987.23
  A 1.48 1.10 -80.5 0 0 591.44 986.52
  C 595.78 977.54 594.59 967.05 594.64 957.31
  C 594.65 954.54 596.45 949.96 596.22 948.24
  Q 595.75 944.82 596.86 941.49
  A 1.63 1.33 -12.7 0 1 597.44 940.75
  C 600.38 938.72 601.96 929.95 599.06 927.41
  Q 593.72 922.75 587.91 918.53
  Q 584.37 915.96 579.72 917.74
  C 571.95 920.71 563.72 923.62 558.17 929.50
  C 550.99 937.12 545.92 944.95 547.82 955.84
  Q 548.23 958.19 548.04 960.71
  Q 547.34 970.04 553.49 977.24
  Q 555.81 979.96 556.36 980.89
  C 559.84 986.82 562.84 994.80 571.57 992.63
  Z"
></path>
<path fill="#000000" d="
  M 807.82 1026.20
  Q 806.39 1014.96 807.45 1003.70
  C 807.87 999.31 807.42 994.48 808.11 989.82
  A 1.87 0.87 52.7 0 0 807.89 988.82
  Q 807.25 987.52 807.54 986.00
  A 1.27 0.36 54.6 0 0 807.23 985.13
  C 804.31 980.24 800.69 979.36 794.12 976.71
  C 789.99 975.05 784.93 974.85 780.00 973.79
  Q 776.25 972.98 774.07 976.50
  Q 771.14 981.21 766.83 984.65
  A 1.70 1.43 -14.4 0 0 766.28 985.42
  Q 765.11 989.14 766.92 991.60
  C 771.34 997.60 769.97 1000.90 769.57 1007.44
  Q 769.33 1011.38 766.65 1014.42
  A 1.40 1.28 -26.2 0 0 766.31 1015.30
  Q 766.34 1024.94 766.43 1034.55
  Q 766.45 1037.39 765.56 1040.72
  Q 763.87 1046.98 763.57 1053.52
  A 1.76 1.76 3.2 0 1 761.69 1055.20
  C 757.86 1054.95 752.94 1057.88 752.64 1051.31
  C 752.35 1044.71 753.16 1038.22 754.64 1032.15
  Q 755.66 1027.95 755.86 1023.56
  Q 756.69 1006.26 755.54 988.97
  C 755.22 984.22 755.50 979.71 755.72 975.06
  Q 755.76 974.21 755.69 972.69
  C 755.39 966.30 753.80 959.75 754.42 953.65
  Q 754.90 948.99 755.84 944.38
  C 756.66 940.37 756.32 935.82 757.88 931.44
  C 758.73 929.05 758.35 926.69 759.05 924.26
  C 759.73 921.89 759.38 919.21 761.69 917.14
  A 1.37 0.57 -50.1 0 1 762.50 916.72
  Q 766.43 916.68 768.71 919.78
  A 1.83 1.79 36.2 0 1 768.98 921.40
  C 766.59 928.89 765.71 936.86 764.69 943.95
  Q 763.84 949.97 764.21 956.07
  C 764.34 958.12 765.26 960.82 764.97 963.51
  A 1.90 1.89 14.2 0 0 766.15 965.48
  Q 768.68 966.50 771.47 966.03
  C 778.94 964.75 786.17 966.09 793.31 967.68
  C 797.41 968.59 801.04 971.08 805.08 971.53
  C 810.20 972.10 816.32 973.38 817.24 979.14
  C 817.86 983.00 818.53 985.35 818.57 988.41
  C 818.62 992.07 816.52 995.86 816.29 1000.00
  Q 815.47 1014.88 816.51 1020.74
  C 818.59 1032.40 827.73 1042.62 827.83 1054.72
  Q 827.85 1057.26 830.17 1057.84
  L 837.56 1059.70
  A 1.13 0.33 11.5 0 1 838.44 1060.16
  Q 839.01 1062.28 838.70 1064.50
  A 1.42 1.16 80.9 0 1 838.17 1065.41
  Q 834.92 1067.62 832.66 1070.91
  A 1.51 1.13 6.4 0 1 831.74 1071.45
  Q 830.00 1071.73 828.79 1073.07
  A 1.17 0.20 10.9 0 1 827.74 1073.05
  L 824.07 1072.45
  A 1.46 1.17 69.8 0 1 823.31 1071.99
  Q 821.34 1069.72 819.88 1067.14
  Q 818.59 1064.88 818.29 1061.56
  C 817.46 1052.26 813.96 1043.84 808.99 1032.51
  Q 808.47 1031.31 807.82 1026.20
  Z
  M 826.44 1064.86
  Q 827.54 1065.26 828.31 1066.19
  A 0.60 0.50 45.8 0 0 829.15 1066.28
  C 829.66 1065.69 828.42 1063.90 828.56 1062.77
  Q 828.61 1062.36 828.24 1062.56
  L 826.51 1063.52
  Q 825.01 1064.34 826.44 1064.86
  Z"
></path>
<path fill="#000000" d="
  M 672.45 1026.46
  C 666.84 1025.30 654.86 1020.53 654.05 1013.68
  C 653.29 1007.38 652.25 999.97 650.51 993.91
  C 648.34 986.29 646.40 980.43 647.51 972.31
  C 647.70 970.91 647.59 968.25 648.39 966.33
  C 651.47 958.95 653.70 952.12 658.18 946.43
  C 665.99 936.50 679.63 930.40 691.98 935.13
  A 1.31 0.83 9.1 0 1 692.73 935.79
  L 694.22 940.26
  A 0.68 0.63 63.2 0 1 694.01 940.99
  Q 690.41 943.73 686.42 941.63
  A 1.44 1.17 -33.0 0 0 685.49 941.53
  C 670.51 945.06 664.65 957.55 661.39 971.32
  C 660.65 974.44 660.98 977.82 660.53 981.28
  C 659.93 985.93 663.13 991.53 663.22 994.75
  C 663.35 998.79 664.23 1002.58 664.73 1006.69
  C 665.13 1010.00 665.36 1013.11 668.03 1015.51
  C 669.94 1017.23 671.36 1018.96 673.90 1019.61
  C 681.38 1021.52 694.04 1014.43 701.90 1010.17
  C 704.02 1009.02 705.61 1007.18 707.96 1005.90
  C 710.62 1004.45 713.31 1005.32 716.33 1004.45
  A 1.21 0.86 -29.2 0 1 717.28 1004.55
  Q 720.07 1006.52 719.36 1010.24
  A 1.27 0.50 -87.0 0 1 719.01 1011.01
  C 712.67 1016.10 707.71 1017.16 702.09 1020.87
  Q 700.66 1021.82 699.19 1022.05
  C 689.52 1023.60 682.82 1028.61 672.45 1026.46
  Z
  M 716.82 1007.99
  C 714.45 1009.41 718.74 1009.14 717.66 1008.03
  A 0.74 0.59 -36.0 0 0 716.82 1007.99
  Z
  M 709.76 1010.27
  Q 709.75 1011.71 710.86 1010.71
  Q 711.50 1010.15 711.68 1009.07
  A 0.52 0.43 -87.8 0 0 711.21 1008.46
  Q 709.76 1008.68 709.76 1010.27
  Z
  M 714.25 1011.01
  Q 714.20 1011.45 714.56 1011.67
  A 0.88 0.50 -44.5 0 0 715.40 1011.45
  Q 716.32 1010.69 715.06 1010.58
  A 0.77 0.51 5.4 0 0 714.25 1011.01
  Z"
></path>
<path fill="#000000" d="
  M 455.75 951.66
  C 460.70 945.38 465.86 942.19 474.11 940.74
  C 479.51 939.80 485.24 938.77 490.57 940.04
  Q 502.11 942.79 511.02 949.50
  C 517.13 954.10 520.23 964.60 523.54 971.53
  Q 526.93 978.61 527.48 982.57
  Q 528.79 991.86 523.95 1000.29
  Q 522.58 1002.67 521.88 1004.88
  C 519.68 1011.83 515.14 1016.79 509.03 1020.84
  C 499.48 1027.15 488.53 1033.29 477.35 1032.50
  C 469.19 1031.92 461.04 1029.10 454.21 1024.19
  C 442.76 1015.97 436.87 1012.61 435.53 997.16
  Q 434.93 990.26 434.09 982.73
  Q 433.84 980.57 435.90 979.86
  Q 438.60 978.94 443.75 980.73
  A 0.89 0.89 -75.8 0 0 444.92 980.03
  C 445.50 976.41 445.66 972.85 446.83 969.42
  Q 448.65 964.06 450.44 958.69
  C 451.51 955.51 454.21 953.62 455.75 951.66
  Z
  M 507.69 1005.56
  Q 508.68 1007.63 508.90 1006.20
  A 1.29 0.83 38.1 0 0 508.60 1005.34
  C 507.91 1004.47 507.84 1003.84 508.31 1002.75
  C 510.53 997.54 514.02 990.95 514.37 985.90
  C 514.73 980.65 512.92 977.36 510.81 972.74
  C 507.41 965.28 503.11 954.25 494.61 951.22
  Q 476.73 944.85 464.27 959.26
  C 462.89 960.86 462.20 963.00 461.19 964.90
  C 458.17 970.53 457.53 976.80 455.98 984.73
  Q 454.20 993.84 460.32 1001.24
  Q 461.63 1002.81 460.41 1004.13
  Q 458.63 1006.05 456.20 1006.64
  A 1.58 1.13 43.2 0 1 455.25 1006.51
  Q 453.95 1005.91 453.50 1007.25
  Q 453.02 1008.67 455.55 1011.43
  C 460.60 1016.93 467.26 1022.62 474.62 1023.60
  Q 482.43 1024.65 489.19 1020.21
  Q 493.47 1017.40 496.24 1016.39
  A 1.72 1.67 8.1 0 0 497.01 1015.83
  C 498.50 1013.93 500.80 1012.54 502.05 1011.23
  Q 504.50 1008.64 506.32 1005.57
  Q 507.08 1004.29 507.69 1005.56
  Z
  M 437.95 1000.27
  C 437.97 996.95 436.47 1000.81 437.54 1000.77
  A 0.51 0.42 -89.9 0 0 437.95 1000.27
  Z"
></path>
<path fill="#030200" fill-opacity="0.208" d="
  M 109.93 974.52
  Q 108.84 974.33 109.98 973.77
  A 0.57 0.43 -20.2 0 1 110.76 974.01
  Q 110.79 974.24 110.69 974.41
  A 0.81 0.30 12.1 0 1 109.93 974.52
  Z"
></path>
<path fill="#030200" fill-opacity="0.208" d="
  M 437.54 1000.77
  C 436.47 1000.81 437.97 996.95 437.95 1000.27
  A 0.51 0.42 -89.9 0 1 437.54 1000.77
  Z"
></path>
<path fill="#030200" fill-opacity="0.208" d="
  M 717.66 1008.03
  C 718.74 1009.14 714.45 1009.41 716.82 1007.99
  A 0.74 0.59 -36.0 0 1 717.66 1008.03
  Z"
></path>
<path fill="#030200" fill-opacity="0.208" d="
  M 715.06 1010.58
  Q 716.32 1010.69 715.40 1011.45
  A 0.88 0.50 -44.5 0 1 714.56 1011.67
  Q 714.20 1011.45 714.25 1011.01
  A 0.77 0.51 5.4 0 1 715.06 1010.58
  Z"
></path>
<path fill="#030200" fill-opacity="0.208" d="
  M 275.56 1015.58
  C 277.27 1015.84 273.90 1017.83 274.80 1016.00
  A 0.77 0.70 -71.5 0 1 275.56 1015.58
  Z"
></path>
<path fill="#000000" d="
  M 310.43 1171.60
  Q 309.64 1171.76 309.05 1172.45
  A 0.52 0.38 -48.3 0 1 308.40 1172.59
  L 307.29 1171.47
  A 1.36 0.31 -0.8 0 0 306.25 1171.25
  Q 299.43 1171.04 292.74 1172.44
  A 1.57 1.04 43.3 0 1 291.82 1172.28
  L 291.34 1172.04
  A 1.55 1.25 -33.9 0 0 290.40 1171.96
  Q 283.90 1173.54 277.14 1172.73
  C 275.10 1172.48 273.35 1171.33 270.58 1171.46
  Q 267.98 1171.59 264.43 1170.89
  C 262.25 1170.47 258.66 1170.28 255.87 1169.05
  A 1.24 1.13 3.5 0 1 255.22 1168.38
  C 254.44 1166.34 254.68 1164.30 253.84 1162.39
  C 252.41 1159.15 251.19 1156.84 250.96 1153.13
  Q 250.40 1143.76 248.14 1134.67
  C 247.06 1130.32 247.77 1126.85 249.33 1122.98
  A 1.62 1.49 -42.6 0 0 249.41 1122.04
  Q 248.18 1116.72 248.47 1111.31
  C 248.66 1107.67 246.75 1104.99 247.07 1101.88
  Q 247.65 1096.31 248.26 1090.75
  C 248.65 1087.18 247.55 1083.55 249.91 1079.57
  A 1.45 1.38 3.8 0 1 250.64 1078.96
  C 254.84 1077.35 264.64 1075.83 264.38 1082.45
  C 264.23 1086.33 264.45 1088.24 265.76 1091.32
  Q 266.86 1093.88 266.57 1095.36
  Q 266.09 1097.85 263.97 1099.43
  A 1.41 1.10 -17.5 0 0 263.44 1100.20
  C 263.12 1101.78 263.75 1103.03 263.72 1104.35
  Q 263.10 1130.58 266.42 1150.06
  Q 267.06 1153.83 270.83 1156.73
  Q 271.01 1156.87 273.15 1158.77
  C 275.28 1160.69 278.67 1160.21 280.61 1160.48
  C 287.60 1161.44 293.48 1158.67 301.42 1157.68
  C 307.07 1156.98 323.56 1156.25 325.96 1160.10
  C 327.86 1163.15 325.71 1167.87 322.99 1169.71
  Q 322.05 1170.34 321.50 1171.36
  A 0.74 0.61 -66.9 0 1 320.75 1171.75
  L 319.01 1171.24
  A 0.91 0.79 23.3 0 0 318.05 1171.55
  Q 317.39 1172.51 316.25 1172.77
  A 0.96 0.27 -15.6 0 1 315.48 1172.77
  Q 314.48 1171.94 313.33 1172.59
  A 1.56 0.71 20.5 0 1 312.32 1172.66
  Q 311.66 1172.52 311.17 1172.09
  A 1.01 0.15 41.9 0 0 310.43 1171.60
  Z
  M 315.67 1161.19
  Q 317.92 1161.44 319.70 1161.24
  Q 321.48 1161.04 319.76 1160.55
  Q 314.10 1158.92 308.34 1159.46
  C 306.50 1159.63 303.98 1159.15 301.94 1160.00
  A 1.15 0.17 -24.2 0 1 301.01 1160.26
  Q 299.60 1159.75 298.42 1160.66
  A 1.22 0.48 19.1 0 1 297.48 1160.70
  Q 294.17 1159.89 296.71 1162.07
  A 0.71 0.50 -38.3 0 0 297.45 1162.03
  C 300.85 1159.88 311.69 1160.74 315.67 1161.19
  Z
  M 323.42 1163.06
  L 323.93 1164.06
  A 0.86 0.33 61.1 0 0 324.69 1164.70
  Q 325.13 1164.32 325.01 1163.74
  Q 324.60 1161.72 322.69 1160.58
  Q 321.64 1159.95 321.22 1160.96
  A 0.81 0.36 29.8 0 0 321.72 1161.64
  L 322.77 1162.27
  A 1.98 0.94 75.9 0 1 323.42 1163.06
  Z
  M 291.84 1162.39
  C 296.58 1158.75 288.29 1162.27 290.94 1162.67
  A 1.34 0.94 -52.3 0 0 291.84 1162.39
  Z
  M 260.4333 1167.8286
  A 1.04 0.87 27.4 0 0 259.9104 1166.5776
  A 1.04 0.87 27.4 0 0 258.5867 1166.8714
  A 1.04 0.87 27.4 0 0 259.1096 1168.1224
  A 1.04 0.87 27.4 0 0 260.4333 1167.8286
  Z"
></path>
<path fill="#000000" d="
  M 460.83 1135.70
  C 457.51 1132.13 462.88 1132.38 464.65 1131.16
  C 470.47 1127.16 468.49 1115.45 466.86 1109.59
  C 465.93 1106.25 466.89 1103.08 467.28 1099.75
  C 467.74 1095.86 465.43 1092.65 467.31 1088.75
  Q 469.27 1084.66 474.52 1085.91
  A 1.09 1.05 83.5 0 1 475.22 1086.49
  C 477.44 1091.08 476.53 1094.93 478.00 1099.41
  C 479.55 1104.17 479.83 1109.57 480.61 1114.08
  Q 481.67 1120.21 481.28 1126.48
  A 1.58 1.41 -62.5 0 0 481.51 1127.39
  C 484.04 1131.19 489.10 1128.09 489.73 1131.21
  A 0.88 0.60 85.6 0 0 490.26 1131.88
  Q 491.10 1132.05 491.18 1130.84
  A 0.43 0.39 -82.0 0 1 491.66 1130.44
  Q 500.82 1132.72 510.25 1133.56
  Q 510.54 1133.59 511.13 1133.90
  L 516.52 1136.69
  A 1.24 1.17 -84.1 0 1 517.14 1137.50
  Q 517.92 1140.68 517.03 1143.75
  A 1.60 1.30 46.1 0 0 517.11 1144.69
  C 520.03 1151.96 514.05 1161.38 510.97 1167.86
  C 509.60 1170.72 506.93 1172.90 505.59 1175.33
  C 501.42 1182.89 495.32 1197.71 484.87 1197.71
  C 478.43 1197.71 473.25 1193.57 472.27 1187.09
  Q 470.67 1176.57 469.43 1165.98
  C 468.51 1158.11 468.88 1148.62 467.89 1139.72
  A 2.66 1.86 -88.9 0 0 466.45 1137.57
  L 461.77 1136.21
  A 2.13 0.98 3.8 0 1 460.83 1135.70
  Z
  M 486.20 1187.07
  C 488.56 1187.82 493.45 1175.42 494.30 1173.46
  C 495.22 1171.34 497.17 1169.70 498.13 1167.34
  C 501.42 1159.25 504.38 1151.22 503.67 1142.31
  Q 503.44 1139.50 500.78 1138.77
  Q 493.59 1136.79 486.28 1136.34
  Q 485.70 1136.30 485.19 1136.06
  Q 483.75 1135.36 482.31 1136.06
  A 1.11 0.35 -87.8 0 0 481.99 1136.96
  C 481.60 1141.92 480.96 1146.72 481.29 1151.69
  Q 481.94 1161.39 482.55 1171.10
  C 482.84 1175.82 484.31 1180.61 484.93 1185.53
  A 1.87 1.85 -84.9 0 0 486.20 1187.07
  Z"
></path>
<path fill="#000000" d="
  M 370.73 1093.83
  C 374.61 1095.51 377.35 1098.25 380.60 1100.75
  A 2.01 0.98 24.5 0 1 381.25 1101.54
  L 383.42 1107.32
  A 1.69 0.83 81.9 0 0 383.95 1108.10
  Q 385.87 1109.44 385.17 1111.97
  A 1.61 0.44 68.6 0 0 385.28 1112.98
  Q 386.84 1118.62 386.48 1120.00
  Q 384.49 1127.54 380.71 1132.45
  Q 378.67 1135.10 377.98 1136.31
  A 1.68 0.98 -74.5 0 1 377.26 1137.01
  L 373.09 1138.62
  Q 370.86 1139.49 370.81 1142.04
  C 370.63 1149.79 374.35 1150.43 381.10 1153.81
  Q 385.59 1156.05 390.62 1156.65
  C 395.95 1157.29 399.59 1151.18 400.38 1146.71
  A 1.63 1.29 78.4 0 1 400.81 1145.86
  C 404.50 1142.34 407.30 1146.87 410.81 1147.67
  Q 413.52 1148.29 412.29 1151.27
  Q 410.93 1154.60 408.63 1157.30
  C 406.65 1159.63 403.82 1160.49 401.17 1162.22
  A 1.75 1.68 27.7 0 1 400.24 1162.49
  C 390.26 1162.54 383.57 1164.12 374.13 1158.76
  A 1.32 0.35 33.5 0 0 373.25 1158.46
  L 371.25 1158.78
  A 1.22 0.57 48.5 0 1 370.41 1158.42
  C 367.66 1156.01 360.97 1152.27 360.03 1148.96
  Q 359.15 1145.88 358.65 1144.74
  A 1.81 1.43 43.7 0 1 358.51 1143.75
  Q 358.62 1143.07 358.06 1142.68
  A 0.98 0.32 -36.6 0 0 357.19 1142.97
  Q 354.39 1144.89 350.94 1144.08
  Q 350.47 1143.97 349.99 1144.08
  C 336.78 1147.07 328.11 1140.96 318.42 1132.82
  Q 316.58 1131.27 315.52 1129.12
  Q 313.55 1125.12 311.90 1120.51
  C 311.03 1118.08 308.42 1115.45 308.44 1112.70
  Q 308.65 1092.75 327.08 1090.98
  C 332.51 1090.46 337.13 1088.91 342.30 1088.13
  C 349.34 1087.06 357.71 1089.16 364.78 1090.32
  A 2.01 1.81 66.4 0 1 365.66 1090.72
  Q 368.01 1092.65 370.73 1093.83
  Z
  M 328.90 1120.68
  Q 336.38 1123.80 344.92 1127.65
  Q 345.81 1128.05 347.30 1128.48
  Q 351.38 1129.66 354.64 1132.39
  Q 356.89 1134.28 358.40 1131.68
  Q 361.16 1126.95 366.42 1126.58
  C 375.99 1125.90 371.37 1112.82 369.77 1107.51
  C 367.34 1099.49 360.46 1097.49 352.20 1094.93
  C 345.45 1092.84 343.32 1096.04 337.43 1096.36
  C 327.59 1096.90 322.10 1100.10 321.05 1110.52
  C 320.57 1115.36 324.70 1118.93 328.90 1120.68
  Z"
></path>
<path fill="#000000" d="
  M 559.54 1162.91
  C 551.17 1160.38 537.28 1153.53 535.38 1143.57
  C 534.48 1138.83 534.84 1133.02 538.60 1129.53
  Q 544.57 1124.00 549.30 1117.43
  Q 552.24 1113.37 554.45 1111.81
  Q 559.67 1108.14 566.27 1107.56
  A 1.55 1.15 -61.8 0 0 567.12 1107.16
  C 568.42 1105.96 569.60 1107.13 570.81 1107.42
  Q 574.43 1108.28 578.07 1107.92
  A 1.46 1.32 -26.3 0 1 579.06 1108.20
  L 582.09 1110.64
  A 1.24 1.22 33.3 0 1 582.42 1112.17
  Q 581.06 1114.81 578.23 1115.70
  A 1.13 0.75 -29.8 0 1 577.34 1115.64
  C 575.59 1114.42 573.43 1114.51 571.57 1113.95
  C 566.18 1112.34 563.28 1115.13 560.15 1119.53
  Q 555.16 1126.54 552.71 1129.50
  C 543.87 1140.22 551.21 1152.40 562.53 1156.51
  Q 564.78 1157.33 566.82 1156.07
  C 569.51 1154.41 571.99 1151.97 574.63 1150.66
  C 579.86 1148.07 595.28 1145.66 596.16 1154.51
  A 1.49 1.47 -69.5 0 0 596.54 1155.36
  C 599.79 1158.90 601.85 1162.47 601.33 1167.54
  C 600.73 1173.48 599.38 1179.46 595.23 1184.07
  C 589.29 1190.67 584.55 1193.23 575.54 1197.30
  Q 562.43 1203.23 548.78 1198.49
  Q 544.90 1197.14 533.69 1191.75
  A 1.23 0.31 28.4 0 0 532.75 1191.51
  L 531.50 1191.99
  A 0.78 0.69 55.8 0 1 530.71 1191.79
  L 529.21 1190.30
  A 1.47 0.44 -1.3 0 0 528.20 1190.02
  C 524.00 1189.73 523.03 1186.25 522.80 1182.69
  C 522.44 1177.35 529.43 1177.34 533.20 1178.08
  C 536.29 1178.68 537.45 1180.67 538.16 1183.46
  A 1.75 1.16 21.9 0 0 538.72 1184.27
  Q 542.23 1187.14 546.56 1188.43
  A 1.74 0.55 9.9 0 1 547.54 1188.94
  Q 548.97 1190.72 551.24 1190.52
  A 1.40 1.23 57.8 0 1 552.16 1190.79
  Q 557.44 1194.69 563.51 1193.27
  C 571.03 1191.52 582.47 1186.58 586.26 1179.40
  C 590.28 1171.79 588.71 1162.63 584.22 1155.51
  A 0.83 0.83 55.9 0 0 583.04 1155.28
  C 575.03 1161.03 570.68 1166.28 559.54 1162.91
  Z"
></path>
</symbol>
<symbol viewBox="0 0 24 24" fill="none" stroke="currentColor" stroke-width="2" stroke-linecap="round" stroke-linejoin="round" id="disc-3">
  <circle cx="12" cy="12" r="10" ></circle>
  <path d="M6 12c0-1.7.7-3.2 1.8-4.2" ></path>
  <circle cx="12" cy="12" r="2" ></circle>
  <path d="M18 12c0 1.7-.7 3.2-1.8 4.2" ></path>
</symbol>
<symbol fill="currentColor" role="img" viewBox="0 0 24 24" id="github"><title>GitHub</title><path d="M12 .297c-6.63 0-12 5.373-12 12 0 5.303 3.438 9.8 8.205 11.385.6.113.82-.258.82-.577 0-.285-.01-1.04-.015-2.04-3.338.724-4.042-1.61-4.042-1.61C4.422 18.07 3.633 17.7 3.633 17.7c-1.087-.744.084-.729.084-.729 1.205.084 1.838 1.236 1.838 1.236 1.07 1.835 2.809 1.305 3.495.998.108-.776.417-1.305.76-1.605-2.665-.3-5.466-1.332-5.466-5.93 0-1.31.465-2.38 1.235-3.22-.135-.303-.54-1.523.105-3.176 0 0 1.005-.322 3.3 1.23.96-.267 1.98-.399 3-.405 1.02.006 2.04.138 3 .405 2.28-1.552 3.285-1.23 3.285-1.23.645 1.653.24 2.873.12 3.176.765.84 1.23 1.91 1.23 3.22 0 4.61-2.805 5.625-5.475 5.92.42.36.81 1.096.81 2.22 0 1.606-.015 2.896-.015 3.286 0 .315.21.69.825.57C20.565 22.092 24 17.592 24 12.297c0-6.627-5.373-12-12-12"></path></symbol>
<symbol viewBox="0 0 24 24" fill="none" stroke="currentColor" stroke-width="2" stroke-linecap="round" stroke-linejoin="round" id="heart-crack">
  <path d="M19 14c1.49-1.46 3-3.21 3-5.5A5.5 5.5 0 0 0 16.5 3c-1.76 0-3 .5-4.5 2-1.5-1.5-2.74-2-4.5-2A5.5 5.5 0 0 0 2 8.5c0 2.3 1.5 4.05 3 5.5l7 7Z" ></path>
  <path d="m12 13-1-1 2-2-3-3 2-2" ></path>
</symbol>
<symbol viewBox="0 0 24 24" fill="none" stroke="currentColor" stroke-width="2" stroke-linecap="round" stroke-linejoin="round" id="heart">
  <path d="M19 14c1.49-1.46 3-3.21 3-5.5A5.5 5.5 0 0 0 16.5 3c-1.76 0-3 .5-4.5 2-1.5-1.5-2.74-2-4.5-2A5.5 5.5 0 0 0 2 8.5c0 2.3 1.5 4.05 3 5.5l7 7Z" ></path>
</symbol>
<symbol viewBox="0 0 24 24" fill="none" stroke="currentColor" stroke-width="2" stroke-linecap="round" stroke-linejoin="round" id="log-out">
  <path d="M9 21H5a2 2 0 0 1-2-2V5a2 2 0 0 1 2-2h4" ></path>
  <polyline points="16 17 21 12 16 7" ></polyline>
  <line x1="21" x2="9" y1="12" y2="12" ></line>
</symbol>
<symbol viewBox="0 0 24 24" fill="none" stroke="currentColor" stroke-width="2" stroke-linecap="round" stroke-linejoin="round" class="lucide lucide-search" id="search"><circle cx="11" cy="11" r="8"></circle><path d="m21 21-4.3-4.3"></path></symbol>
<symbol fill="currentColor" role="img" viewBox="0 0 24 24" id="spotify"><title>Spotify</title><path d="M12 0C5.4 0 0 5.4 0 12s5.4 12 12 12 12-5.4 12-12S18.66 0 12 0zm5.521 17.34c-.24.359-.66.48-1.021.24-2.82-1.74-6.36-2.101-10.561-1.141-.418.122-.779-.179-.899-.539-.12-.421.18-.78.54-.9 4.56-1.021 8.52-.6 11.64 1.32.42.18.479.659.301 1.02zm1.44-3.3c-.301.42-.841.6-1.262.3-3.239-1.98-8.159-2.58-11.939-1.38-.479.12-1.02-.12-1.14-.6-.12-.48.12-1.021.6-1.141C9.6 9.9 15 10.561 18.72 12.84c.361.181.54.78.241 1.2zm.12-3.36C15.24 8.4 8.82 8.16 5.16 9.301c-.6.179-1.2-.181-1.38-.721-.18-.601.18-1.2.72-1.381 4.26-1.26 11.28-1.02 15.721 1.621.539.3.719 1.02.419 1.56-.299.421-1.02.599-1.559.3z"></path></symbol>
</defs>
</svg>